# Blender v2.78 (sub 0) OBJ File: 'Asset02_CornerVFXMESH.blend'
# www.blender.org
mtllib VFXMesh_03AngleParticleFat.mtl
o Plane.001_Mesh
v -0.104696 -0.485833 0.046000
v -0.104696 -0.485833 -0.046000
v -0.103805 -0.122353 0.046000
v -0.103805 -0.122353 -0.046000
v 0.262425 -0.122353 0.046000
v 0.262425 -0.122353 -0.046000
v 0.262356 0.042388 0.049465
v 0.262356 0.103722 -0.046047
v 0.262356 0.042388 0.272866
v 0.262356 0.103722 0.211533
v 0.262356 0.263785 0.272866
v 0.262356 0.202452 0.211533
v 0.262241 0.268885 -0.155188
v 0.262241 0.197329 -0.160948
v -0.023203 0.263796 -0.160032
v 0.038131 0.202463 -0.155570
v -0.028413 -0.209191 -0.126033
v 0.043143 -0.208737 -0.166921
v -0.027408 -0.209203 0.267907
v 0.044148 -0.208749 0.267781
v -0.027319 0.125514 0.267910
v 0.044236 0.123015 0.267784
v -0.022230 0.125723 0.491070
v 0.039103 0.118682 0.552403
v -0.220894 0.125725 0.491063
v -0.315040 0.118683 0.552397
v -0.221981 0.120505 0.191029
v -0.313981 0.120505 0.191029
v -0.221935 0.422714 0.192077
v -0.313935 0.422714 0.192077
v 0.213509 -0.089872 0.000000
v 0.216419 0.073055 0.001709
v -0.269242 0.169180 0.241608
v 0.216419 0.233118 0.242200
v 0.216446 0.232793 -0.107515
v 0.011425 -0.176148 -0.106512
v 0.216419 0.073055 0.242200
v -0.150633 -0.485833 0.000000
v -0.152721 -0.089872 -0.000000
v -0.267935 0.422714 0.238014
v 0.011127 0.233444 -0.105804
v 0.010021 0.168029 0.524500
v 0.008108 -0.176495 0.235363
v 0.010661 0.168160 0.235442
v -0.268852 0.168059 0.524307
v -0.045635 -0.485833 -0.000000
v -0.048894 -0.164116 -0.000000
v 0.323910 -0.164116 0.000000
v 0.321417 0.073055 0.001709
v 0.321417 0.073055 0.242200
v 0.321417 0.233118 0.242200
v 0.322079 0.233512 -0.199832
v 0.011127 0.232725 -0.203143
v 0.011425 -0.251157 -0.200125
v 0.008709 -0.250738 0.309607
v 0.005626 0.060625 0.309513
v 0.006399 0.063283 0.518184
v -0.266829 0.063246 0.518416
v -0.266358 0.064444 0.139819
v -0.267935 0.422714 0.137125
vt 0.9992 0.8532
vt 0.9992 0.9297
vt 0.0006 0.9297
vt 0.0006 0.8532
vt 0.9992 0.7323
vt 0.9992 0.7898
vt 0.0006 0.7898
vt 0.0006 0.7323
vt 0.9992 0.5591
vt 0.9992 0.6560
vt 0.0006 0.6560
vt 0.0006 0.5591
vt 0.9992 0.0004
vt 0.9992 0.0831
vt 0.0006 0.0831
vt 0.0006 0.0004
vt 0.9992 0.2684
vt 0.9992 0.3051
vt 0.0006 0.3051
vt 0.0006 0.2684
vt 0.9992 0.3974
vt 0.9992 0.4568
vt 0.0006 0.4568
vt 0.0006 0.3974
vt 0.0009 0.8538
vt 0.0009 0.7901
vt 0.9987 0.7901
vt 0.9987 0.8538
vt 0.0009 0.9998
vt 0.0009 0.9300
vt 0.9987 0.9300
vt 0.9987 0.9998
vt 0.0009 0.3981
vt 0.0009 0.3062
vt 0.9987 0.3062
vt 0.9987 0.3981
vt 0.0009 0.7319
vt 0.0009 0.6554
vt 0.9987 0.6554
vt 0.9987 0.7319
vt 0.0009 0.5593
vt 0.0009 0.4571
vt 0.9987 0.4571
vt 0.9987 0.5593
vt 0.0009 0.1686
vt 0.0009 0.0840
vt 0.9987 0.0840
vt 0.9987 0.1686
vt 0.9992 0.1674
vt 0.9992 0.2131
vt 0.0006 0.2131
vt 0.0006 0.1674
vt 0.0009 0.2693
vt 0.0009 0.2139
vt 0.9987 0.2139
vt 0.9987 0.2693
vt 0.0009 0.0005
vt 0.9987 0.0005
vt 0.9992 0.9999
vt 0.0006 0.9999
vn -0.9997 -0.0233 -0.0002
vn 0.9992 -0.0408 -0.0001
vn 1.0000 0.0031 0.0071
vn -0.0000 -0.0000 -1.0000
vn 0.0003 -1.0000 0.0001
vn 0.0000 0.9935 0.1141
vn 0.0000 -0.0035 1.0000
vn -1.0000 -0.0001 0.0003
vn -0.0018 0.0000 -1.0000
vn 0.2747 0.0246 0.9612
vn 0.0000 1.0000 0.0000
vn 0.0029 0.0085 -1.0000
vn -1.0000 0.0000 0.0000
vn 0.0010 -0.0093 1.0000
vn 0.0679 0.9977 0.0081
vn 0.9995 0.0008 0.0309
vn -1.0000 -0.0004 -0.0001
vn -1.0000 0.0025 0.0000
vn -0.0063 1.0000 0.0000
vn -0.0395 0.9992 -0.0051
vn 1.0000 0.0007 -0.0003
vn 0.0001 -0.0582 0.9983
vn 0.0034 -1.0000 -0.0001
vn -0.9999 -0.0006 -0.0139
usemtl None
s off
f 45/1/1 33/2/1 59/3/1 58/4/1
f 44/5/2 42/6/2 57/7/2 56/8/2
f 36/9/3 43/10/3 55/11/3 54/12/3
f 38/13/4 39/14/4 47/15/4 46/16/4
f 37/17/4 34/18/4 51/19/4 50/20/4
f 35/21/5 41/22/5 53/23/5 52/24/5
f 26/25/6 24/26/6 23/27/6 25/28/6
f 30/29/7 28/30/7 27/31/7 29/32/7
f 14/33/8 12/34/8 11/35/8 13/36/8
f 22/37/9 20/38/9 19/39/9 21/40/9
f 18/41/10 16/42/10 15/43/10 17/44/10
f 6/45/11 4/46/11 3/47/11 5/48/11
f 31/49/12 32/50/12 49/51/12 48/52/12
f 10/53/13 8/54/13 7/55/13 9/56/13
f 16/42/14 14/33/14 13/36/14 15/43/14
f 24/26/15 22/37/15 21/40/15 23/27/15
f 43/10/16 44/5/16 56/8/16 55/11/16
f 8/54/17 6/45/17 5/48/17 7/55/17
f 4/46/18 2/57/18 1/58/18 3/47/18
f 20/38/19 18/41/19 17/44/19 19/39/19
f 28/30/20 26/25/20 25/28/20 27/31/20
f 41/22/21 36/9/21 54/12/21 53/23/21
f 39/14/4 31/49/4 48/52/4 47/15/4
f 42/6/22 45/1/22 58/4/22 57/7/22
f 34/18/23 35/21/23 52/24/23 51/19/23
f 32/50/11 37/17/11 50/20/11 49/51/11
f 33/2/24 40/59/24 60/60/24 59/3/24
f 12/34/13 10/53/13 9/56/13 11/35/13
